<?xml version="1.0" encoding="UTF-8" standalone="no"?>
<!-- Created with Inkscape (http://www.inkscape.org/) -->

<svg
   width="512"
   height="512"
   viewBox="0 0 135.46667 135.46667"
   version="1.1"
   id="svg5"
   inkscape:version="1.1 (c68e22c387, 2021-05-23)"
   sodipodi:docname="drawing.svg"
   xmlns:inkscape="http://www.inkscape.org/namespaces/inkscape"
   xmlns:sodipodi="http://sodipodi.sourceforge.net/DTD/sodipodi-0.dtd"
   xmlns="http://www.w3.org/2000/svg"
   xmlns:svg="http://www.w3.org/2000/svg">
  <sodipodi:namedview
     id="namedview7"
     pagecolor="#ffffff"
     bordercolor="#666666"
     borderopacity="1.0"
     inkscape:pageshadow="2"
     inkscape:pageopacity="0.0"
     inkscape:pagecheckerboard="0"
     inkscape:document-units="mm"
     showgrid="false"
     units="px"
     width="793.70081px"
     inkscape:zoom="1.0456808"
     inkscape:cx="254.37974"
     inkscape:cy="270.15893"
     inkscape:window-width="1920"
     inkscape:window-height="1015"
     inkscape:window-x="1366"
     inkscape:window-y="0"
     inkscape:window-maximized="1"
     inkscape:current-layer="layer1" />
  <defs
     id="defs2" />
  <g
     inkscape:label="Layer 1"
     inkscape:groupmode="layer"
     id="layer1">
    <rect
       style="fill:#eaeaea;fill-opacity:1;stroke:none;stroke-width:8.26426;stroke-linecap:butt;stroke-linejoin:miter;stroke-miterlimit:4;stroke-dasharray:16.5285, 8.26426;stroke-dashoffset:0;stroke-opacity:1;paint-order:normal"
       id="rect31"
       width="112.15732"
       height="112.15732"
       x="11.654675"
       y="11.654675"
       ry="20.2757" />
    <path
       d="m 97.921975,88.925727 c 0,1.666528 -1.35246,3.018873 -3.018866,3.018873 H 62.885033 c -0.803027,0 -1.569816,0.313999 -2.13132,0.881528 l -4.214334,4.214331 c -0.561503,0.561593 -1.328293,0.881526 -2.13132,0.881526 h -9.575836 c -0.803004,0 -1.569818,-0.319933 -2.131321,-0.881526 L 38.486571,92.826128 C 37.91902,92.258599 37.158278,91.9446 36.35525,91.9446 h -7.867158 c -1.666414,0 -3.018866,-1.352528 -3.018866,-3.018873 V 70.752182 c 0,-1.666299 1.352458,-3.018871 3.018866,-3.018871 h 7.806781 c 0.803028,0 1.569817,0.319932 2.131321,0.881526 l 4.274713,4.274713 c 0.561503,0.561593 1.328293,0.881527 2.13132,0.881527 h 9.575839 c 0.803028,0 1.569818,-0.319934 2.13132,-0.881527 l 4.274712,-4.274713 c 0.561504,-0.561594 1.328293,-0.881526 2.131321,-0.881526 h 31.9577 c 1.666414,0 3.018864,1.352526 3.018864,3.018871 z m 12.075455,-30.18863 c 0,1.666527 -1.35246,3.018851 -3.01886,3.018851 H 62.885033 c -0.803027,0 -1.569816,0.313999 -2.13132,0.881526 l -4.214334,4.214355 c -0.561503,0.561594 -1.328293,0.881526 -2.13132,0.881526 h -9.575836 c -0.803004,0 -1.569818,-0.319932 -2.131321,-0.881526 L 38.486571,62.637498 C 37.91902,62.069969 37.158278,61.75597 36.35525,61.75597 h -7.867158 c -1.666414,0 -3.018866,-1.352527 -3.018866,-3.018849 V 40.563552 c 0,-1.666528 1.352458,-3.018871 3.018866,-3.018871 h 7.806781 c 0.803028,0 1.569817,0.319933 2.131321,0.881526 l 4.274713,4.274713 c 0.561503,0.561595 1.328293,0.881526 2.13132,0.881526 h 9.575839 c 0.803028,0 1.569818,-0.319931 2.13132,-0.881526 l 4.274712,-4.274713 c 0.561504,-0.561593 1.328293,-0.881526 2.131321,-0.881526 h 44.033161 c 1.66641,0 3.01886,1.352526 3.01886,3.018871 z"
       id="Code"
       fill="#ff4c4c"
       style="fill:#393939;fill-opacity:1;fill-rule:evenodd;stroke:none;stroke-width:6.03772" />
  </g>
</svg>
